<svg id="Layer_1" data-name="Layer 1" xmlns="http://www.w3.org/2000/svg" viewBox="0 0 800 319.45"><defs><style>.cls-1{fill:#fff;}</style></defs><path class="cls-1" d="M0,127.08C0,53.47,58,0,137.15,0S274.31,53.47,274.31,127.08s-58,127.09-137.16,127.09S0,200.7,0,127.08Zm191.67,0c0-37.84-24.31-60.76-54.52-60.76S82.64,89.24,82.64,127.08s24.3,60.77,54.51,60.77S191.67,164.93,191.67,127.08Z"/><path class="cls-1" d="M406.25,5.56V248.61H324.3V67.36H282.63V5.56Z"/><path class="cls-1" d="M551.38,5.56V248.61H469.44V67.36H427.78V5.56Z"/><path class="cls-1" d="M800,58.68,721.87,252.43c-20.83,52.09-51.39,67-91.67,67-20.83,0-44.79-6.6-57.63-17l26-53.82c7.64,5.91,18.4,10.07,27.78,10.07s15.27-2.77,19.44-7.63L566,58.68h80.55l39.24,101.74L725.7,58.68Z"/></svg>
